<svg width="208" height="73" viewBox="0 0 208 73" fill="none" xmlns="http://www.w3.org/2000/svg">
<path d="M12.152 11.6489C14.04 11.6489 15.688 12.0329 17.096 12.8009C18.536 13.5689 19.64 14.5769 20.408 15.8249V12.0329H28.616V38.7689C28.616 41.2329 28.12 43.4569 27.128 45.4409C26.168 47.4569 24.68 49.0569 22.664 50.2409C20.68 51.4249 18.2 52.0169 15.224 52.0169C11.256 52.0169 8.03999 51.0729 5.57599 49.1849C3.11199 47.3289 1.70399 44.8009 1.35199 41.6009H9.46399C9.71999 42.6249 10.328 43.4249 11.288 44.0009C12.248 44.6089 13.432 44.9129 14.84 44.9129C16.536 44.9129 17.88 44.4169 18.872 43.4249C19.896 42.4649 20.408 40.9129 20.408 38.7689V34.9769C19.608 36.2249 18.504 37.2489 17.096 38.0489C15.688 38.8169 14.04 39.2009 12.152 39.2009C9.94399 39.2009 7.94399 38.6409 6.15199 37.5209C4.35999 36.3689 2.93599 34.7529 1.87999 32.6729C0.855994 30.5609 0.343994 28.1289 0.343994 25.3769C0.343994 22.6249 0.855994 20.2089 1.87999 18.1289C2.93599 16.0489 4.35999 14.4489 6.15199 13.3289C7.94399 12.2089 9.94399 11.6489 12.152 11.6489ZM20.408 25.4249C20.408 23.3769 19.832 21.7609 18.68 20.5769C17.56 19.3929 16.184 18.8009 14.552 18.8009C12.92 18.8009 11.528 19.3929 10.376 20.5769C9.25599 21.7289 8.69599 23.3289 8.69599 25.3769C8.69599 27.4249 9.25599 29.0569 10.376 30.2729C11.528 31.4569 12.92 32.0489 14.552 32.0489C16.184 32.0489 17.56 31.4569 18.68 30.2729C19.832 29.0889 20.408 27.4729 20.408 25.4249ZM42.7621 16.4969C43.7221 15.0249 44.9221 13.8729 46.3621 13.0409C47.8021 12.1769 49.4021 11.7449 51.1621 11.7449V20.4329H48.9061C46.8581 20.4329 45.3221 20.8809 44.2981 21.7769C43.2741 22.6409 42.7621 24.1769 42.7621 26.3849V38.8169H34.5541V12.0329H42.7621V16.4969ZM81.5334 12.0329V38.8169H73.3254V35.1689C72.4934 36.3529 71.3574 37.3129 69.9174 38.0489C68.5094 38.7529 66.9414 39.1049 65.2134 39.1049C63.1654 39.1049 61.3574 38.6569 59.7894 37.7609C58.2214 36.8329 57.0054 35.5049 56.1414 33.7769C55.2774 32.0489 54.8454 30.0169 54.8454 27.6809V12.0329H63.0054V26.5769C63.0054 28.3689 63.4694 29.7609 64.3974 30.7529C65.3254 31.7449 66.5734 32.2409 68.1414 32.2409C69.7414 32.2409 71.0054 31.7449 71.9334 30.7529C72.8614 29.7609 73.3254 28.3689 73.3254 26.5769V12.0329H81.5334ZM95.6371 15.8249C96.4371 14.5769 97.5411 13.5689 98.9491 12.8009C100.357 12.0329 102.005 11.6489 103.893 11.6489C106.101 11.6489 108.101 12.2089 109.893 13.3289C111.685 14.4489 113.093 16.0489 114.117 18.1289C115.173 20.2089 115.701 22.6249 115.701 25.3769C115.701 28.1289 115.173 30.5609 114.117 32.6729C113.093 34.7529 111.685 36.3689 109.893 37.5209C108.101 38.6409 106.101 39.2009 103.893 39.2009C102.037 39.2009 100.389 38.8169 98.9491 38.0489C97.5411 37.2809 96.4371 36.2889 95.6371 35.0729V51.5849H87.4291V12.0329H95.6371V15.8249ZM107.349 25.3769C107.349 23.3289 106.773 21.7289 105.621 20.5769C104.501 19.3929 103.109 18.8009 101.445 18.8009C99.813 18.8009 98.4211 19.3929 97.2691 20.5769C96.1491 21.7609 95.5891 23.3769 95.5891 25.4249C95.5891 27.4729 96.1491 29.0889 97.2691 30.2729C98.4211 31.4569 99.813 32.0489 101.445 32.0489C103.077 32.0489 104.469 31.4569 105.621 30.2729C106.773 29.0569 107.349 27.4249 107.349 25.3769ZM118.375 25.3769C118.375 22.6249 118.887 20.2089 119.911 18.1289C120.967 16.0489 122.391 14.4489 124.183 13.3289C125.975 12.2089 127.975 11.6489 130.183 11.6489C132.071 11.6489 133.719 12.0329 135.127 12.8009C136.567 13.5689 137.671 14.5769 138.439 15.8249V12.0329H146.647V38.8169H138.439V35.0249C137.639 36.2729 136.519 37.2809 135.079 38.0489C133.671 38.8169 132.023 39.2009 130.135 39.2009C127.959 39.2009 125.975 38.6409 124.183 37.5209C122.391 36.3689 120.967 34.7529 119.911 32.6729C118.887 30.5609 118.375 28.1289 118.375 25.3769ZM138.439 25.4249C138.439 23.3769 137.863 21.7609 136.711 20.5769C135.591 19.3929 134.215 18.8009 132.583 18.8009C130.951 18.8009 129.559 19.3929 128.407 20.5769C127.287 21.7289 126.727 23.3289 126.727 25.3769C126.727 27.4249 127.287 29.0569 128.407 30.2729C129.559 31.4569 130.951 32.0489 132.583 32.0489C134.215 32.0489 135.591 31.4569 136.711 30.2729C137.863 29.0889 138.439 27.4729 138.439 25.4249ZM160.793 3.2969V38.8169H152.585V3.2969H160.793ZM170.87 9.2489C169.43 9.2489 168.246 8.8329 167.318 8.0009C166.422 7.1369 165.974 6.0809 165.974 4.8329C165.974 3.5529 166.422 2.4969 167.318 1.6649C168.246 0.800897 169.43 0.368896 170.87 0.368896C172.278 0.368896 173.43 0.800897 174.326 1.6649C175.254 2.4969 175.718 3.5529 175.718 4.8329C175.718 6.0809 175.254 7.1369 174.326 8.0009C173.43 8.8329 172.278 9.2489 170.87 9.2489ZM174.95 12.0329V38.8169H166.742V12.0329H174.95ZM179.266 25.3769C179.266 22.6249 179.778 20.2089 180.802 18.1289C181.858 16.0489 183.282 14.4489 185.074 13.3289C186.866 12.2089 188.866 11.6489 191.074 11.6489C192.962 11.6489 194.61 12.0329 196.018 12.8009C197.458 13.5689 198.562 14.5769 199.33 15.8249V12.0329H207.538V38.8169H199.33V35.0249C198.53 36.2729 197.41 37.2809 195.97 38.0489C194.562 38.8169 192.914 39.2009 191.026 39.2009C188.85 39.2009 186.866 38.6409 185.074 37.5209C183.282 36.3689 181.858 34.7529 180.802 32.6729C179.778 30.5609 179.266 28.1289 179.266 25.3769ZM199.33 25.4249C199.33 23.3769 198.754 21.7609 197.602 20.5769C196.482 19.3929 195.106 18.8009 193.474 18.8009C191.842 18.8009 190.45 19.3929 189.298 20.5769C188.178 21.7289 187.618 23.3289 187.618 25.3769C187.618 27.4249 188.178 29.0569 189.298 30.2729C190.45 31.4569 191.842 32.0489 193.474 32.0489C195.106 32.0489 196.482 31.4569 197.602 30.2729C198.754 29.0889 199.33 27.4729 199.33 25.4249Z" fill="black"/>
<mask id="mask0_8_527" style="mask-type:luminance" maskUnits="userSpaceOnUse" x="139" y="43" width="68" height="31">
<path d="M139.193 43.7038C139.244 51.5261 142.855 59.0073 149.231 64.5017C155.607 69.9961 164.226 73.0536 173.193 73.0015C182.159 72.9494 190.738 69.792 197.042 64.224C203.346 58.6559 206.858 51.1333 206.807 43.311L199.28 43.3547C199.32 49.4354 196.589 55.2831 191.689 59.6115C186.788 63.9398 180.12 66.3942 173.15 66.4347C166.18 66.4752 159.48 64.0984 154.523 59.8274C149.566 55.5563 146.76 49.7408 146.72 43.6601L139.193 43.7038Z" fill="white"/>
</mask>
<g mask="url(#mask0_8_527)">
<path d="M139.193 43.7038C139.244 51.5261 142.855 59.0073 149.231 64.5017C155.607 69.9961 164.226 73.0536 173.193 73.0015C182.159 72.9494 190.738 69.792 197.042 64.224C203.346 58.6559 206.858 51.1333 206.807 43.311L199.28 43.3547C199.32 49.4354 196.589 55.2831 191.689 59.6115C186.788 63.9398 180.12 66.3942 173.15 66.4347C166.18 66.4752 159.48 64.0984 154.523 59.8274C149.566 55.5563 146.76 49.7408 146.72 43.6601L139.193 43.7038Z" fill="#7C3AED" stroke="#7C3AED"/>
</g>
</svg>
